        <svg xmlns="http://www.w3.org/2000/svg" width="360" height="360" viewBox="0 0 360 360" fill="none">
            <path d="M334.261 138.035C346.514 125.702 348.42 113.715 341.472 100.062C334.442 86.2613 324.717 81.1332 308.834 83.3921C316.849 67.9587 311.823 55.5098 299.701 45.6661C289.484 37.3723 278.035 33.9098 265.026 43.6381C266.898 24.5442 256.485 15.2776 241.094 10.6773C227.526 6.63762 218.196 10.2982 209.507 22.0546C204.037 4.16442 191.11 -1.49126 174.355 0.322515C161.905 1.67462 152.903 7.89097 150.357 22.7308C140.929 7.62719 127.903 6.98412 114.582 11.9967C101.375 16.9598 92.4725 26.2264 94.5421 43.1438C78.9047 33.1022 66.1581 38.2302 55.4156 49.7558C46.3649 59.4677 43.1291 70.8777 50.9478 83.475C34.6862 80.9523 25.0605 86.1297 17.6032 101.118C10.8685 114.639 12.7082 125.554 22.5309 135.15C16.8475 139.405 9.35728 142.669 5.64502 148.407C1.76851 154.393 0.175306 162.72 0.0110358 170.074C-0.301077 183.94 6.18712 191.822 19.5085 196.027C2.26131 205.095 2.09695 219.292 7.30392 234.709C11.591 247.422 20.3132 253.16 34.6365 253.704C25.9308 268.494 26.2922 279.228 35.9013 291.166C45.3461 302.906 55.6944 306.022 70.412 301.57C67.2254 318.141 71.9725 328.331 86.7065 336.592C99.1244 343.55 110.36 342.396 121.217 332.437C122.548 350.706 133.849 358.209 150.044 359.742C162.922 360.979 174.043 358.011 178.56 345.38C184.128 349.816 189.04 355.917 195.331 358.126C201.589 360.319 209.506 359.907 216.158 358.34C230.745 354.927 236.445 347.458 237.808 332.486C249.766 344.078 262.578 343.187 275.242 335.075C287.299 327.358 293.82 316.74 288.465 301.554C306.369 305.808 317.638 301.323 326.475 286.846C333.39 275.534 332.487 263.794 324.963 254.858C330.745 252.648 338.153 251.626 342.868 247.487C347.878 243.101 351.508 236.159 353.66 229.646C358.39 215.252 353.889 204.814 340.371 196.323C356.846 191.013 361.626 178.202 359.54 163.494C357.684 150.484 352.263 138.332 334.211 138.035L334.261 138.035ZM178.576 301.636C109.423 300.07 57.0906 245.146 58.6184 175.712C60.0639 110.121 116.635 56.0379 182.88 58.1813C249.421 60.3412 302.23 114.028 301.081 182.291C299.947 248.938 244.115 303.12 178.593 301.636L178.576 301.636Z" fill="#03351A"/>
        </svg>